<svg width="28" height="28" fill="none" xmlns="http://www.w3.org/2000/svg"><path d="M15.167 9.998a1.668 1.668 0 1 0-.001 3.336 1.668 1.668 0 0 0 0-3.336Z" fill="#312ED7"/><path d="M15.412 3.5a8.158 8.158 0 0 0-8.389 7.747l-2.24 2.986a.583.583 0 0 0 .467.934H7v3.5A2.34 2.34 0 0 0 9.333 21H10.5v2.333a1.17 1.17 0 0 0 1.167 1.167H17.5a1.17 1.17 0 0 0 1.167-1.167V19.04a8.172 8.172 0 0 0 4.666-7.677c-.163-4.223-3.71-7.735-7.921-7.863Zm3.255 8.167c0 .151-.012.303-.024.455l.969.77c.093.07.116.186.058.291l-.933 1.622c-.059.105-.187.14-.28.105l-1.155-.467a3.501 3.501 0 0 1-.782.455l-.187 1.237c-.011.117-.116.198-.233.198h-1.867a.237.237 0 0 1-.233-.198l-.175-1.237a3.333 3.333 0 0 1-.793-.455l-1.155.467c-.105.035-.234 0-.292-.105l-.933-1.622a.221.221 0 0 1 .058-.291l.98-.77c-.012-.152-.023-.304-.023-.455 0-.152.023-.315.046-.455l-.991-.77c-.094-.07-.117-.187-.059-.304l.934-1.61a.23.23 0 0 1 .28-.105l1.166.467c.234-.175.502-.338.782-.455L14 7.198A.237.237 0 0 1 14.233 7H16.1c.117 0 .21.082.233.198l.175 1.237c.28.117.537.268.782.455l1.167-.467c.105-.035.233 0 .28.105l.933 1.61a.234.234 0 0 1-.058.304l-.992.77c.035.14.047.291.047.455Z" fill="#3F4040"/></svg>