<svg width="23" height="24" fill="none" xmlns="http://www.w3.org/2000/svg"><path d="M16.77 4.5c-1.868 0-3.88.4-5.27 1.5-1.39-1.1-3.402-1.5-5.27-1.5-1.39 0-2.866.22-4.102.79-.7.33-1.17 1.04-1.17 1.85v11.28c0 1.3 1.17 2.26 2.377 1.94.94-.25 1.936-.36 2.894-.36 1.495 0 3.086.26 4.37.92.575.3 1.227.3 1.792 0 1.284-.67 2.875-.92 4.37-.92.959 0 1.955.11 2.895.36 1.207.33 2.376-.63 2.376-1.94V7.14c0-.81-.47-1.52-1.169-1.85-1.227-.57-2.703-.79-4.092-.79Zm3.355 12.73a.98.98 0 0 1-1.15.98c-.719-.14-1.466-.2-2.204-.2-1.63 0-3.977.65-5.271 1.5V8c1.294-.85 3.642-1.5 5.27-1.5.883 0 1.755.09 2.588.28.441.1.767.51.767.98v9.47Z" fill="#3F4040"/><path d="M13.398 11.01a.71.71 0 0 1-.68-.52c-.125-.39.085-.82.46-.94 1.475-.5 3.382-.66 5.136-.45.393.05.68.42.632.83-.048.41-.402.71-.795.66-1.553-.19-3.249-.04-4.533.39-.077.01-.153.03-.22.03ZM13.398 13.67a.71.71 0 0 1-.68-.52c-.125-.39.085-.82.46-.94 1.465-.5 3.382-.66 5.136-.45.393.05.68.42.632.83-.048.41-.402.71-.795.66-1.553-.19-3.249-.04-4.533.39a.892.892 0 0 1-.22.03ZM13.398 16.33a.71.71 0 0 1-.68-.52c-.125-.39.085-.82.46-.94 1.465-.5 3.382-.66 5.136-.45.393.05.68.42.632.83a.735.735 0 0 1-.795.66c-1.553-.19-3.249-.04-4.533.39a.892.892 0 0 1-.22.03Z" fill="#312ED7"/></svg>