<svg width="24" height="24" fill="none" xmlns="http://www.w3.org/2000/svg"><path d="M5 13.18v2.81c0 .73.4 1.41 1.04 1.76l5 2.73c.6.33 1.32.33 1.92 0l5-2.73c.64-.35 1.04-1.03 1.04-1.76v-2.81l-6.04 3.3c-.6.33-1.32.33-1.92 0L5 13.18Zm6.04-9.66-8.43 4.6c-.69.38-.69 1.38 0 1.76l8.43 4.6c.6.33 1.32.33 1.92 0L21 10.09V16c0 .55.45 1 1 1s1-.45 1-1V9.59c0-.37-.2-.7-.52-.88l-9.52-5.19a2.04 2.04 0 0 0-1.92 0Z" fill="#3F4040"/><path d="M5.008 16.216c-.019-.524 0-2.613 0-3.135 0-.523 5.754 3.612 5.852 3.658.097.046 1.95 0 1.95 0s5.162-3.045 5.851-3.658c.69-.614.134 2.448 0 3.135v.007c-.134.683-.21 1.068-.487 1.561-.28.495-4.983 2.968-5.364 3.136-.38.167-1.378.025-1.463 0-.084-.026-5.17-2.992-5.363-3.136-.194-.144-.957-1.044-.976-1.568Z" fill="#312ED7" stroke="#312ED7"/></svg>