<svg width="32" height="32" fill="none" xmlns="http://www.w3.org/2000/svg"><path d="M16 28c6.627 0 12-5.373 12-12S22.627 4 16 4 4 9.373 4 16s5.373 12 12 12Z" stroke="#3F4040" stroke-width="2" stroke-linecap="round" stroke-linejoin="round"/><path d="m26.77 21.297-6.785-4.174a1 1 0 0 0-.39-.14l-2.853-.384a1 1 0 0 0-1.047.584l-1.712 3.843a1 1 0 0 0 .179 1.085l2.35 2.542a1.001 1.001 0 0 1 .247.869l-.478 2.475" stroke="#3F4040" stroke-width="2" stroke-linecap="round" stroke-linejoin="round"/><path d="M8.119 6.95 7.001 9.596a1 1 0 0 0-.015.74l1.436 3.833a1 1 0 0 0 .726.627l2.679.576a1 1 0 0 1 .69.542l.476.983a1 1 0 0 0 .9.564h1.679" stroke="#3F4040" stroke-width="2" stroke-linecap="round" stroke-linejoin="round"/><path d="m19.057 4.394 1.167 2.09a1 1 0 0 1-.202 1.229l-3.364 3.042c-.057.051-.12.096-.188.133l-1.53.845a1 1 0 0 1-.483.125h-2.668a1 1 0 0 0-.922.612l-1.04 2.47" stroke="#3F4040" stroke-width="2" stroke-linecap="round" stroke-linejoin="round"/><path d="M9.5 7.5 8 10l1.5 3 .5-2 1.5-.5h3l1.5-1L19 7l-1-1.5h-3.5l-3 .5-2 1.5Z" fill="#312ED7" stroke="#312ED7" stroke-linecap="round"/></svg>