<svg width="22" height="20" fill="none" xmlns="http://www.w3.org/2000/svg"><mask id="a" style="mask-type:alpha" maskUnits="userSpaceOnUse" x="4" y="0" width="13" height="20"><path d="M5.297 9.266a.87.87 0 0 0-.006 1.326l9.73 8.93c.397.376 1.053.376 1.46.002.396-.362.394-.967-.003-1.345l-8.193-7.504-.762-.744.756-.738 8.203-7.527a.892.892 0 0 0 0-1.327 1.086 1.086 0 0 0-1.459 0L5.297 9.267Z" fill="#fff"/></mask><g mask="url(#a)"><path fill="#3F4040" d="M-78 .058H22v20H-78z"/><mask id="b" style="mask-type:alpha" maskUnits="userSpaceOnUse" x="-78" y="0" width="100" height="21"><path fill="#fff" d="M-78 .058H22v20H-78z"/></mask></g></svg>