<svg width="7" height="7" viewBox="0 0 7 7" fill="none" xmlns="http://www.w3.org/2000/svg">
<path d="M3.5 0C1.56998 0 0 1.33696 0 2.98108C0.0418386 3.56504 0.227248 4.12094 0.532718 4.57829C0.838188 5.03564 1.24996 5.37385 1.71582 5.55001C1.51247 5.82685 1.26577 6.10783 1.00998 6.39286C0.967393 6.44035 0.937601 6.50202 0.924432 6.56997C0.911263 6.63793 0.915318 6.70905 0.936076 6.77421C0.956835 6.83938 0.993349 6.89561 1.04093 6.9357C1.08852 6.97578 1.145 6.99789 1.20312 6.99918C1.22138 6.99981 1.24075 6.99981 1.26 6.99981C2.20992 7.00961 3.13531 6.63811 3.88908 5.94438C5.67 5.77897 7 4.52118 7 2.98108C7 1.33696 5.43002 0 3.5 0ZM3.75083 5.25399C3.68124 5.25861 3.61534 5.29304 3.5651 5.35101C3.12211 5.8085 2.58036 6.10639 2.00235 6.2103C2.15965 6.01562 2.30439 5.80687 2.4353 5.58585C2.4617 5.54059 2.47879 5.48846 2.48515 5.43374C2.49151 5.37901 2.48696 5.32326 2.47189 5.27106C2.45681 5.21885 2.43164 5.17168 2.39843 5.13342C2.36521 5.09515 2.32491 5.06688 2.28083 5.05092C1.24985 4.67426 0.583333 3.86152 0.583333 2.98108C0.583333 1.72328 1.89187 0.699981 3.5 0.699981C5.10813 0.699981 6.41667 1.72328 6.41667 2.98108C6.41667 4.15411 5.24545 5.15277 3.75083 5.25399Z" fill="#518CFF"/>
</svg>
