<svg width="25" height="25" fill="none" xmlns="http://www.w3.org/2000/svg"><path d="M19.792 3.125h-4.355C15 1.917 13.854 1.042 12.5 1.042c-1.354 0-2.5.875-2.938 2.083H5.208a2.09 2.09 0 0 0-2.083 2.083v14.584a2.09 2.09 0 0 0 2.083 2.083h14.584a2.09 2.09 0 0 0 2.083-2.083V5.208a2.09 2.09 0 0 0-2.083-2.083Zm-7.292 0c.573 0 1.042.469 1.042 1.042 0 .573-.47 1.041-1.042 1.041a1.045 1.045 0 0 1-1.042-1.041c0-.573.47-1.042 1.042-1.042Zm1.042 14.583H8.333a1.045 1.045 0 0 1-1.041-1.041c0-.573.468-1.042 1.041-1.042h5.209c.573 0 1.041.469 1.041 1.042 0 .572-.468 1.041-1.041 1.041Zm3.125-4.166H8.333A1.045 1.045 0 0 1 7.292 12.5c0-.573.468-1.042 1.041-1.042h8.334c.573 0 1.041.469 1.041 1.042 0 .573-.468 1.042-1.041 1.042Zm0-4.167H8.333a1.045 1.045 0 0 1-1.041-1.042c0-.573.468-1.041 1.041-1.041h8.334c.573 0 1.041.468 1.041 1.041s-.468 1.042-1.041 1.042Z" fill="#DADADA"/></svg>