<svg width="25" height="25" fill="none" xmlns="http://www.w3.org/2000/svg"><path fill-rule="evenodd" clip-rule="evenodd" d="M17.364 13.677c1.428.969 2.428 2.282 2.428 4.032v3.125h3.125c.572 0 1.041-.47 1.041-1.042v-2.084c0-2.27-3.718-3.614-6.593-4.03Z" fill="#DADADA"/><path d="M9.375 12.5a4.167 4.167 0 1 0 0-8.333 4.167 4.167 0 0 0 0 8.333Z" fill="#DADADA"/><path fill-rule="evenodd" clip-rule="evenodd" d="M15.625 12.5a4.166 4.166 0 0 0 4.167-4.167 4.166 4.166 0 0 0-4.167-4.166c-.49 0-.948.104-1.386.25a6.229 6.229 0 0 1 0 7.833c.438.146.896.25 1.386.25ZM9.375 13.542c-2.781 0-8.333 1.396-8.333 4.167v2.083c0 .573.468 1.041 1.041 1.041h14.584c.572 0 1.041-.468 1.041-1.041v-2.084c0-2.77-5.552-4.166-8.333-4.166Z" fill="#DADADA"/></svg>