<svg width="18" height="18" fill="none" xmlns="http://www.w3.org/2000/svg"><path d="m15.667 11.758 1.583-1.583a1.67 1.67 0 0 0 0-2.358l-1.583-1.575V4c0-.917-.75-1.667-1.667-1.667h-2.242L10.175.75a1.67 1.67 0 0 0-2.358 0L6.242 2.333H4c-.917 0-1.667.75-1.667 1.667v2.242L.75 7.825a1.67 1.67 0 0 0 0 2.358l1.583 1.584V14c0 .917.75 1.667 1.667 1.667h2.242l1.583 1.583c.65.65 1.708.65 2.358 0l1.584-1.583H14c.917 0 1.667-.75 1.667-1.667v-2.242ZM9 14c-2.758 0-5-2.242-5-5s2.242-5 5-5 5 2.242 5 5-2.242 5-5 5Z" fill="#DADADA"/></svg>