<svg width="10" height="10" viewBox="0 0 10 10" fill="none" xmlns="http://www.w3.org/2000/svg">
<path d="M4.99996 9.16675C5.45829 9.16675 5.83329 8.79175 5.83329 8.33341H4.16663C4.16663 8.79175 4.54163 9.16675 4.99996 9.16675ZM7.49996 6.66675V4.58341C7.49996 3.30425 6.82079 2.23341 5.62496 1.95008V1.66675C5.62496 1.32091 5.34579 1.04175 4.99996 1.04175C4.65413 1.04175 4.37496 1.32091 4.37496 1.66675V1.95008C3.18329 2.23341 2.49996 3.30008 2.49996 4.58341V6.66675L1.66663 7.50008V7.91675H8.33329V7.50008L7.49996 6.66675ZM6.66663 7.08341H3.33329V4.58341C3.33329 3.55008 3.96246 2.70841 4.99996 2.70841C6.03746 2.70841 6.66663 3.55008 6.66663 4.58341V7.08341Z" fill="#3F4040"/>
</svg>
