<svg width="4" height="15" viewBox="0 0 4 15" fill="none" xmlns="http://www.w3.org/2000/svg"><path d="M1.99992 4C2.91658 4 3.66658 3.2125 3.66658 2.25C3.66658 1.2875 2.91658 0.5 1.99992 0.5C1.08325 0.5 0.333252 1.2875 0.333252 2.25C0.333252 3.2125 1.08325 4 1.99992 4ZM1.99992 5.75C1.08325 5.75 0.333252 6.5375 0.333252 7.5C0.333252 8.4625 1.08325 9.25 1.99992 9.25C2.91658 9.25 3.66658 8.4625 3.66658 7.5C3.66658 6.5375 2.91658 5.75 1.99992 5.75ZM1.99992 11C1.08325 11 0.333252 11.7875 0.333252 12.75C0.333252 13.7125 1.08325 14.5 1.99992 14.5C2.91658 14.5 3.66658 13.7125 3.66658 12.75C3.66658 11.7875 2.91658 11 1.99992 11Z" fill="#3F4040"/></svg>