<svg width="14" height="13" viewBox="0 0 14 13" fill="none" xmlns="http://www.w3.org/2000/svg">
<path d="M2.625 2.03131L11.375 10.9688" stroke="#383743" stroke-linecap="round" stroke-linejoin="round"/>
<path d="M8.47148 8.0031C8.04218 8.36543 7.47547 8.55457 6.89599 8.52892C6.31652 8.50327 5.77175 8.26494 5.38151 7.86634C4.99127 7.46774 4.78753 6.94152 4.8151 6.40343C4.84266 5.86535 5.09929 5.35947 5.52851 4.99707" stroke="#383743" stroke-linecap="round" stroke-linejoin="round"/>
<path d="M4.04657 3.48334C1.817 4.53174 0.875 6.50007 0.875 6.50007C0.875 6.50007 2.625 10.1559 7 10.1559C8.02506 10.1635 9.03732 9.94427 9.95299 9.51635" stroke="#383743" stroke-linecap="round" stroke-linejoin="round"/>
<path d="M11.4083 8.58718C12.6006 7.59556 13.125 6.5001 13.125 6.5001C13.125 6.5001 11.375 2.84345 7.00002 2.84345C6.6211 2.84288 6.24278 2.87148 5.86896 2.92898" stroke="#383743" stroke-linecap="round" stroke-linejoin="round"/>
<path d="M7.41165 4.50476C7.87659 4.58766 8.30005 4.80831 8.61851 5.1336C8.93697 5.4589 9.13326 5.8713 9.17794 6.30895" stroke="#383743" stroke-linecap="round" stroke-linejoin="round"/>
</svg>
