<svg width="22" height="20" viewBox="0 0 22 20" fill="none" xmlns="http://www.w3.org/2000/svg">
<mask id="mask0" style="mask-type:alpha" maskUnits="userSpaceOnUse" x="4" y="0" width="13" height="20">
<path d="M5.2974 9.26587C4.88665 9.62929 4.88499 10.2319 5.29106 10.5919L15.0216 19.5212C15.4178 19.8983 16.0737 19.8983 16.4816 19.524C16.877 19.162 16.8754 18.5568 16.4782 18.1795L8.28476 10.6749L7.5232 9.93127L8.27867 9.19318L16.4816 1.66556C16.8761 1.30438 16.8761 0.700629 16.4817 0.33877C16.0741 -0.0352989 15.4202 -0.0357347 15.0231 0.339907L5.2974 9.26587Z" fill="white"/>
</mask>
<g mask="url(#mask0)">
<rect x="-78" y="0.058197" width="100" height="20" fill="#3F4040"/>
<mask id="mask1" style="mask-type:alpha" maskUnits="userSpaceOnUse" x="-78" y="0" width="100" height="21">
<rect x="-78" y="0.058197" width="100" height="20" fill="white"/>
</mask>
<g mask="url(#mask1)">
</g>
</g>
</svg>
