<svg width="10" height="10" viewBox="0 0 10 10" fill="none" xmlns="http://www.w3.org/2000/svg">
<path d="M3.15833 1.70008L2.56249 1.10425C1.56249 1.86675 0.904159 3.04175 0.845825 4.37508H1.67916C1.74166 3.27091 2.30833 2.30425 3.15833 1.70008ZM8.32082 4.37508H9.15416C9.09166 3.04175 8.43333 1.86675 7.43749 1.10425L6.84583 1.70008C7.68749 2.30425 8.25832 3.27091 8.32082 4.37508ZM7.49999 4.58341C7.49999 3.30425 6.81666 2.23341 5.62499 1.95008V1.66675C5.62499 1.32091 5.34583 1.04175 4.99999 1.04175C4.65416 1.04175 4.37499 1.32091 4.37499 1.66675V1.95008C3.17916 2.23341 2.49999 3.30008 2.49999 4.58341V6.66675L1.66666 7.50008V7.91675H8.33332V7.50008L7.49999 6.66675V4.58341ZM4.99999 9.16675C5.05833 9.16675 5.11249 9.16258 5.16666 9.15008C5.43749 9.09175 5.65833 8.90841 5.76666 8.65841C5.80833 8.55841 5.82916 8.45008 5.82916 8.33341H4.16249C4.16666 8.79175 4.53749 9.16675 4.99999 9.16675Z" fill="#3F4040"/>
</svg>
